<?xml version='1.0' encoding='utf-8'?>
<svg xmlns="http://www.w3.org/2000/svg" xmlns:xlink="http://www.w3.org/1999/xlink" viewBox="0 0 500 500">
 <defs>
  <linearGradient id="h" y1=".5" y2=".5">
   <stop stop-color="#666" offset="0"/>
   <stop stop-color="#2e2e2e" offset="1"/>
  </linearGradient>
  <linearGradient id="i" x1="3.5e-5" y1=".50009" y2=".50009">
   <stop stop-color="#f04f36" offset="0"/>
   <stop stop-color="#f04f36" offset="1"/>
  </linearGradient>
  <linearGradient id="g" x1="-1.2e-5" x2="1.0001" y1=".5" y2=".5">
   <stop stop-color="#666" offset="0"/>
   <stop stop-color="#ccc" offset="1"/>
  </linearGradient>
  <linearGradient id="j" x1=".5" x2=".5" y1="1" y2="-4e-6">
   <stop stop-color="#f5f9e6" offset="0"/>
   <stop stop-color="#a0dae3" offset="1"/>
  </linearGradient>
  <linearGradient id="f" x1=".24376" x2=".75416" y1="1.0607" y2="-.00214">
   <stop stop-color="#66bc46" offset="0"/>
   <stop stop-color="#acd037" offset="1"/>
  </linearGradient>
 </defs>
 <path d="m223.9 24s-252.59-9-206.75 66.5c16.847 8.5 53.847 12.218 30.847 34.859-24 8.641-37 31.641-19.539 49.616 0 0 41.206 13.525 37.872 38.275s-64.333 29.084-28.333 63.417 494.76 6.563 447.38-113.05-178.58-131.62-261.48-139.62z" fill="url(#j)"/>
 <path d="m27.153 346.46s50.77-131.54 221.54-127.69 237.69 106.92 245.38 117.69c-6.923 15.384-13.847 33.076-112.31 43.076-23.077 2.308-66.155 4.616-49.231 23.847 6.924 6.153 10.001 13.076-6.153 19.23s-68.462 16.923-105.38 16.923-96.923-1.539-121.54-30c-7.692-10.769-9.231-13.845-7.692-20.769s-0.769-10.77-13.846-19.231-35.616-20.768-50.77-23.076z"/>
 <path d="m38.461 339.23s61-118.92 209.46-118.15 226.92 96.153 235.39 116.15c-5.385 10-25.384 30-76.153 35.385s-81.539 9.231-86.154 21.539c-0.76999 7.691 6.154 12.308 6.154 12.308s13.847 6.154-5.385 14.615-69.231 16.923-120.77 12.308-83.077-10.769-100-32.308c-9.231-10 1.83-12.106-1.539-20.77-5.384-13.845-37.923-30.308-61-41.077z" fill="url(#f)"/>
 <path d="m278 292.67s-2.333-9.667 15.667-12.334c15.395-2.281 32.352-1.289 32.333 4.667 0.33402 5.333-3.999 8.333-8.666 10s-37.334 7.001-39.334-2.333z"/>
 <path d="m284.25 293.75s9.75-10 35-5c1.75-1.25 6.25-5.5-5-6.5s-23.25 1-26.5 2.5-8.25 7.25-3.5 9z" fill="url(#g)"/>
 <path d="m287.75 295s13.25-9.25 29-3.75c-3 1.75-13.5 6.75-29 3.75z" fill="url(#h)"/>
 <path d="m298.31 71.231s10.677 114.94 0 224.31c7.4747 0 4.911 2.2312 12.065 0-1.3881-42.405-3.2036-83.694-6.0325-179.67 17.458-6.6952 28.133-12.276 65.505-22.32-18.15-6.6952-36.303-14.506-71.538-22.318z"/>
 <path d="m303.65 79.042s1.0078 16.479 1.3881 32.958c6.7265-2.9015 42.816-16.924 56.696-19.343-22.36-6.8011-43.03-11.123-58.085-13.615z" fill="url(#i)"/>
</svg>